<svg width="24" height="30" viewBox="0 0 24 30" fill="none" xmlns="http://www.w3.org/2000/svg">
<path d="M14.3909 24.0149C14.8198 25.6153 13.87 27.2603 12.2696 27.6891C10.6692 28.118 9.0242 27.1682 8.59537 25.5678M10.8915 11.741C11.1957 11.1937 11.2959 10.5322 11.121 9.87958C10.7637 8.54591 9.39282 7.75446 8.05915 8.11181C6.72549 8.46917 5.93403 9.84001 6.29138 11.1737C6.46625 11.8263 6.88378 12.349 7.42088 12.6709M16.2358 15.4454C15.8789 14.1133 14.926 12.9993 13.5867 12.3486C12.2474 11.6979 10.6315 11.5637 9.09443 11.9755C7.55735 12.3874 6.22502 13.3116 5.39054 14.5447C4.55606 15.7779 4.28779 17.2191 4.64473 18.5512C5.2353 20.7553 5.12063 22.5137 4.74768 23.8498C4.32261 25.3727 4.11008 26.1341 4.16749 26.287C4.23318 26.4619 4.2807 26.5099 4.45494 26.5774C4.60723 26.6364 5.247 26.465 6.52654 26.1222L18.3916 22.9429C19.6711 22.6001 20.3109 22.4287 20.4133 22.3014C20.5304 22.1558 20.5476 22.0905 20.517 21.9062C20.4903 21.745 19.9255 21.1919 18.796 20.0856C17.8049 19.1149 16.8264 17.6495 16.2358 15.4454Z" stroke="#1C222B" stroke-width="2" stroke-linecap="round" stroke-linejoin="round"/>
<rect x="4" width="16" height="16" rx="8" fill="#FF574D"/>
<path d="M9.08 12V11.256L11.972 8.136C12.38 7.688 12.672 7.28 12.848 6.912C13.032 6.544 13.124 6.168 13.124 5.784C13.124 4.8 12.552 4.308 11.408 4.308C10.552 4.308 9.796 4.628 9.14 5.268L8.768 4.5C9.08 4.18 9.476 3.924 9.956 3.732C10.444 3.532 10.956 3.432 11.492 3.432C12.34 3.432 12.988 3.632 13.436 4.032C13.892 4.424 14.12 4.984 14.12 5.712C14.12 6.216 13.996 6.712 13.748 7.2C13.5 7.68 13.12 8.192 12.608 8.736L10.34 11.16H14.468V12H9.08Z" fill="white"/>
</svg>
