<svg width="25" height="24" viewBox="0 0 25 24" fill="none" xmlns="http://www.w3.org/2000/svg">
<g opacity="0.12">
<path d="M13.5 5C13.5 6.10457 11.0376 7 8 7C4.96243 7 2.5 6.10457 2.5 5M13.5 5C13.5 3.89543 11.0376 3 8 3C4.96243 3 2.5 3.89543 2.5 5M13.5 5V9.45715C12.2785 9.82398 11.5 10.3789 11.5 11M2.5 5V17C2.5 18.1046 4.96243 19 8 19C9.32963 19 10.5491 18.8284 11.5 18.5429V11M2.5 9C2.5 10.1046 4.96243 11 8 11C9.32963 11 10.5491 10.8284 11.5 10.5429M2.5 13C2.5 14.1046 4.96243 15 8 15C9.32963 15 10.5491 14.8284 11.5 14.5429M22.5 11C22.5 12.1046 20.0376 13 17 13C13.9624 13 11.5 12.1046 11.5 11M22.5 11C22.5 9.89543 20.0376 9 17 9C13.9624 9 11.5 9.89543 11.5 11M22.5 11V19C22.5 20.1046 20.0376 21 17 21C13.9624 21 11.5 20.1046 11.5 19V11M22.5 15C22.5 16.1046 20.0376 17 17 17C13.9624 17 11.5 16.1046 11.5 15" stroke="#1C222B" stroke-width="2" stroke-linecap="round" stroke-linejoin="round"/>
</g>
</svg>
