<svg width="25" height="24" viewBox="0 0 25 24" fill="none" xmlns="http://www.w3.org/2000/svg">
<path d="M20.75 7.27774L12.25 12M12.25 12L3.74997 7.27774M12.25 12L12.25 21.5M14.25 20.8889L13.027 21.5683C12.7434 21.7259 12.6016 21.8046 12.4515 21.8355C12.3185 21.8629 12.1815 21.8629 12.0486 21.8355C11.8984 21.8046 11.7566 21.7259 11.473 21.5683L4.07297 17.4572C3.77346 17.2908 3.62368 17.2076 3.51463 17.0893C3.41816 16.9846 3.34515 16.8605 3.30048 16.7253C3.25 16.5725 3.25 16.4012 3.25 16.0585V7.94144C3.25 7.5988 3.25 7.42748 3.30048 7.27468C3.34515 7.1395 3.41816 7.01542 3.51463 6.91073C3.62368 6.79239 3.77345 6.70919 4.07297 6.54279L11.473 2.43168C11.7566 2.27412 11.8984 2.19534 12.0486 2.16445C12.1815 2.13712 12.3185 2.13712 12.4515 2.16445C12.6016 2.19534 12.7434 2.27412 13.027 2.43168L20.427 6.54279C20.7266 6.70919 20.8763 6.79239 20.9854 6.91073C21.0818 7.01542 21.1549 7.1395 21.1995 7.27468C21.25 7.42747 21.25 7.5988 21.25 7.94144L21.25 12.5M7.75 4.49999L16.75 9.49999M19.25 21V15M16.25 18H22.25" stroke="white" stroke-width="2" stroke-linecap="round" stroke-linejoin="round"/>
</svg>
